<svg width="40" height="40" viewBox="0 0 40 40" fill="none" xmlns="http://www.w3.org/2000/svg">
<g clip-path="url(#clip0_62_11)">
<rect width="40" height="40" rx="8" fill="white"/>
<path d="M96.3318 19.8933C63.0928 -9.48042 43.5646 -9.10836 9.74248 19.8747C8.82491 20.6609 8.82764 22.112 9.74464 22.8989C47.899 55.6423 70.2211 46.1538 96.3486 22.8672C97.2326 22.0793 97.2191 20.6774 96.3318 19.8933Z" fill="white" stroke="black" stroke-width="4"/>
<path d="M64 22C64 33.0457 55.0457 42 44 42C32.9543 42 24 33.0457 24 22C24 10.9543 32.9543 2 44 2C55.0457 2 64 10.9543 64 22Z" fill="black"/>
<path d="M50.8 11.8L49.1301 10.7486C43.9232 7.47019 37.0869 8.60664 33.2208 13.3933V13.3933C32.1522 14.7163 31.3736 16.2491 30.9354 17.8924L30.8839 18.0853C30.3056 20.2541 30.3287 22.5395 30.9508 24.6962V24.6962C33.3716 33.0882 43.4958 36.3908 50.3994 31.0405L52 29.8" stroke="white" stroke-width="4" stroke-linecap="round"/>
</g>
<defs>
<clipPath id="clip0_62_11">
<rect width="40" height="40" rx="8" fill="white"/>
</clipPath>
</defs>
</svg>
