<svg width="25" height="25" viewBox="0 -20 110 100" fill="none" xmlns="http://www.w3.org/2000/svg">
<path d="M83.4331 71.9698C83.4794 72.8749 83.1229 73.448 82.3276 73.7336C81.6022 73.9941 80.9229 73.9051 80.3795 73.3567C79.8344 72.8067 79.7459 72.1185 80.0336 71.4057C80.3337 70.6624 80.9498 70.3353 81.707 70.3772C82.6439 70.4291 83.2205 70.9725 83.4331 71.9698Z" fill="black"/>
<path d="M104.83 36.508C66.1754 2.25679 43.581 2.69364 4.24418 36.4893C3.32761 37.2768 3.3305 38.7323 4.24611 39.5209C48.6252 77.7419 74.4841 66.6179 104.848 39.4876C105.731 38.6986 105.717 37.2933 104.83 36.508Z" stroke="black" stroke-width="5"/>
<circle cx="55.5" cy="37.5" r="26.5" fill="black"/>
<path d="M54.12 23.36C50.4933 23.36 47.48 24.5867 45.08 27.04C42.68 29.4933 41.48 33.0133 41.48 37.6C41.48 42.1333 42.6267 45.6267 44.92 48.08C47.2667 50.5333 50.3333 51.76 54.12 51.76C56.36 51.76 58.2267 51.4667 59.72 50.88C61.2133 50.24 62.5467 49.52 63.72 48.72C64.3067 49.04 64.7867 49.44 65.16 49.92C65.5333 50.4 65.72 50.9867 65.72 51.68C65.72 53.1733 64.6 54.4533 62.36 55.52C60.1733 56.5333 57.4267 57.04 54.12 57.04C50.44 57.04 47.1333 56.3467 44.2 54.96C41.32 53.52 39.0533 51.36 37.4 48.48C35.7467 45.6 34.92 41.9733 34.92 37.6C34.92 33.28 35.7733 29.68 37.48 26.8C39.1867 23.8667 41.48 21.68 44.36 20.24C47.2933 18.7467 50.4933 18 53.96 18C57.2667 18 59.9867 18.56 62.12 19.68C64.3067 20.8 65.4 22.08 65.4 23.52C65.4 24.16 65.2133 24.72 64.84 25.2C64.4667 25.68 63.9867 26.0533 63.4 26.32C62.2267 25.52 60.92 24.8267 59.48 24.24C58.0933 23.6533 56.3067 23.36 54.12 23.36Z" fill="white"/>
<circle cx="52" cy="30" r="4" fill="white"/>
<circle cx="47.5" cy="36.5" r="1.5" fill="white"/>
</svg>
