<svg width="65" height="100" viewBox="0 0 110 100" fill="none" xmlns="http://www.w3.org/2000/svg">
<path d="M86.5233 82.0413C85.5279 78.7647 86.9815 75.6494 90.0187 74.8649C92.9076 74.1186 95.4659 75.0422 96.7907 78.0447C97.8528 80.4518 96.74 83.5055 94.384 84.8076C91.7871 86.2429 88.7818 85.5431 87.1181 83.1065C86.9033 82.7919 86.7351 82.4455 86.5233 82.0413ZM91.6536 77.7149C91.3248 77.6906 91.0353 77.8012 90.7408 77.9393C89.853 78.3553 89.2834 79.0237 89.3451 80.0164C89.4053 80.9838 89.8711 81.7807 90.8044 82.2005C91.768 82.6339 92.5554 82.2046 93.2305 81.5759C93.8432 81.0054 94.192 80.25 93.9074 79.416C93.5762 78.4458 92.86 77.8437 91.6536 77.7149Z" fill="black"/>
<path d="M6.43617 84.5116C6.10692 83.4343 6.28361 82.4075 6.26137 81.3936C6.22642 79.7999 6.25289 78.205 6.24822 76.6106C6.24609 75.8866 6.27067 75.1269 7.06805 74.8366C7.90625 74.5315 8.71324 74.6438 9.27788 75.5397C10.3794 74.6792 11.6275 74.4855 12.9028 74.837C14.6953 75.3311 15.6415 76.6696 15.9119 78.4302C16.1835 80.1974 16.1143 81.9937 15.9933 83.7751C15.9184 84.8783 15.403 85.3564 14.4701 85.3653C13.5569 85.3741 12.9827 84.9128 12.9072 83.92C12.8106 82.6507 12.8383 81.3723 12.7988 80.0983C12.7582 78.7914 12.1536 78.0558 11.148 78.0624C10.1374 78.069 9.44609 78.8967 9.42043 80.177C9.39679 81.3565 9.40647 82.5366 9.40055 83.7164C9.3969 84.4447 9.16624 85.0909 8.42072 85.2971C7.65132 85.51 6.87996 85.4714 6.43617 84.5116Z" fill="black"/>
<path d="M105.198 74.7081C107.778 74.407 109.658 76.4663 109.749 79.0065C109.804 80.5369 109.774 82.0718 109.737 83.6036C109.712 84.6852 109.202 85.3001 108.369 85.3849C107.244 85.4994 106.586 84.9473 106.539 83.7098C106.498 82.6284 106.582 81.5422 106.608 80.4581C106.619 79.9753 106.592 79.4959 106.343 79.0644C105.988 78.4518 105.529 77.9364 104.748 78.0907C103.927 78.2531 103.354 78.7692 103.294 79.6453C103.201 81.0137 103.18 82.3869 103.11 83.7572C103.057 84.8114 102.542 85.3466 101.602 85.3688C100.636 85.3917 100.095 84.8452 100.092 83.8224C100.083 81.3646 100.157 78.9058 100.003 76.4498C99.9607 75.784 100.003 75.0899 100.715 74.8265C101.456 74.552 102.23 74.5813 102.83 75.2456C102.909 75.3336 102.982 75.4277 103.072 75.5361C103.719 75.0934 104.326 74.6691 105.198 74.7081Z" fill="black"/>
<path d="M43.4142 77.2784C43.4157 76.8664 43.403 76.5466 43.4217 76.2287C43.4832 75.1832 44.0489 74.6818 45.1045 74.7223C46.1206 74.7612 46.5868 75.2426 46.5939 76.2991C46.6037 77.7662 46.516 79.2386 46.6116 80.6994C46.8066 83.6789 44.144 86.0502 40.7004 85.4811C38.0275 85.0394 36.692 82.8396 36.8641 80.7849C36.9888 79.2964 36.8795 77.7888 36.8914 76.2899C36.9 75.2249 37.3251 74.7519 38.2593 74.7177C39.2973 74.6796 39.9397 75.1853 39.9809 76.2077C40.0388 77.6408 39.9866 79.0781 40.0277 80.5122C40.0594 81.6187 40.5995 82.272 41.4581 82.3631C42.5303 82.4768 43.3717 81.7488 43.4043 80.6245C43.4358 79.541 43.4132 78.4559 43.4142 77.2784Z" fill="black"/>
<path d="M72.6825 82.5129C73.2778 82.5976 73.7702 82.5692 74.1353 82.0795C73.9372 81.6779 73.5418 81.631 73.1869 81.532C72.3564 81.3005 71.5459 81.0212 70.7685 80.6429C69.4462 79.9994 68.8084 79.0388 68.9131 77.8124C69.0366 76.3659 69.8864 75.1531 71.2448 74.8768C72.9058 74.5391 74.6073 74.4255 76.1354 75.443C76.7201 75.8324 77.2099 76.309 76.8438 77.0995C76.462 77.924 75.737 78.1844 74.8723 77.8525C74.3078 77.6358 73.7468 77.3947 73.1382 77.345C72.7991 77.3173 72.3589 77.2604 72.2966 77.7388C72.2467 78.1218 72.6022 78.2505 72.9172 78.3484C73.7677 78.613 74.6248 78.8589 75.4665 79.1491C76.6385 79.553 77.2944 80.3983 77.4036 81.6291C77.517 82.9074 77.0439 83.9483 75.9854 84.6814C74.2881 85.8571 71.285 85.7762 69.6711 84.4844C69.0847 84.0149 68.4061 83.4842 68.923 82.5665C69.4379 81.6526 70.299 81.4386 71.2834 81.9699C71.7082 82.1991 72.1423 82.3836 72.6825 82.5129Z" fill="black"/>
<path d="M26.3371 75.1702C26.832 75.4306 27.2008 75.7313 27.5028 76.1101C27.9891 76.72 28.1677 77.3731 27.5989 78.0124C27.0666 78.6107 26.4652 78.6927 25.727 78.2526C24.231 77.3609 23.1094 77.5353 22.2752 78.6898C21.6546 79.5486 21.7008 80.8153 22.3821 81.6236C23.0646 82.4334 24.0254 82.624 25.0645 82.1398C25.3526 82.0056 25.6273 81.8399 25.8989 81.6736C26.6591 81.2082 27.2301 81.5548 27.7569 82.0961C28.2915 82.6453 28.2456 83.2173 27.8469 83.8268C27.0951 84.9762 25.937 85.3646 24.671 85.5255C22.0389 85.8601 19.3794 83.9942 18.7688 81.4088C18.1251 78.6835 19.5429 75.8015 22.0778 74.9457C23.4553 74.4806 24.9001 74.5002 26.3371 75.1702Z" fill="black"/>
<path d="M53.2829 77.8081C53.7139 78.8041 54.1209 79.7306 54.6258 80.88C55.4187 79.4448 55.884 78.1114 56.4321 76.8174C56.618 76.3785 56.7647 75.9162 57.0036 75.5081C57.4468 74.7513 58.3999 74.4783 59.1702 74.8331C59.8775 75.159 60.234 75.9398 59.9039 76.779C58.8658 79.4172 57.7003 82.0036 56.3165 84.4786C55.6104 85.7415 53.7812 85.7815 53.0622 84.5137C51.5856 81.9094 50.3947 79.1604 49.3267 76.3627C49.0693 75.6883 49.3455 75.1705 49.9655 74.8561C50.7394 74.4637 51.8341 74.7289 52.2471 75.4757C52.6455 76.1962 52.9264 76.9817 53.2829 77.8081Z" fill="black"/>
<path d="M31.8494 85.3532C30.8958 85.1108 30.6337 84.429 30.6705 83.6526C30.8184 80.5299 30.482 77.4075 30.7143 74.283C30.8014 73.1125 30.6411 71.9257 30.6611 70.7475C30.6814 69.5555 31.2464 68.9709 32.2278 69.0011C33.2014 69.031 33.7641 69.678 33.7651 70.7951C33.7692 75.0384 33.7723 79.2817 33.7659 83.525C33.7638 84.9006 33.3204 85.3297 31.8494 85.3532Z" fill="black"/>
<path d="M2.31758 85.2625C0.567591 85.501 0.108321 85.0899 0.0959138 83.4169C0.0677928 79.6252 0.0168507 75.8337 2.89465e-05 72.042C-0.006505 70.5695 1.09403 69.9213 2.36888 70.6083C2.85062 70.8679 3.12251 71.2354 3.11906 71.8289C3.0978 75.4931 3.09005 79.1571 3.19233 82.8212C3.2163 83.6801 3.31964 84.6493 2.31758 85.2625Z" fill="black"/>
<path d="M64.5272 85.3651C63.3584 85.1896 62.9419 84.7706 62.9395 83.7719C62.9336 81.3179 62.935 78.8637 62.9579 76.4098C62.9684 75.2805 63.5456 74.71 64.5802 74.7246C65.5102 74.7378 66.0593 75.171 66.0723 76.1018C66.1081 78.6507 66.1079 81.2012 66.0524 83.7496C66.0336 84.6131 65.5816 85.2677 64.5272 85.3651Z" fill="black"/>
<path d="M83.1757 84.049C82.8762 84.991 82.3448 85.5193 81.3801 85.3073C80.4464 85.1021 80.1545 84.4596 80.1713 83.5295C80.214 81.1703 80.1846 78.8098 80.1895 76.4498C80.1919 75.2914 80.6443 74.7572 81.6307 74.7257C82.6418 74.6934 83.301 75.3687 83.2923 76.5062C83.2734 78.9927 83.2241 81.479 83.1757 84.049Z" fill="black"/>
<path d="M65.9644 71.0989C66.3321 71.7994 66.3906 72.4403 65.9887 73.0676C65.4829 73.8574 64.4045 74.147 63.6312 73.7121C62.8617 73.2793 62.5525 72.0328 62.9981 71.1596C63.3923 70.3871 64.3466 70.1065 65.2371 70.5327C65.4878 70.6527 65.6932 70.867 65.9644 71.0989Z" fill="black"/>
<path d="M83.4331 71.9698C83.4794 72.8749 83.1229 73.448 82.3276 73.7336C81.6022 73.9941 80.9229 73.9051 80.3795 73.3567C79.8344 72.8067 79.7459 72.1185 80.0336 71.4057C80.3337 70.6624 80.9498 70.3353 81.707 70.3772C82.6439 70.4291 83.2205 70.9725 83.4331 71.9698Z" fill="black"/>
<path d="M104.83 36.508C66.1754 2.25679 43.581 2.69364 4.24418 36.4893C3.32761 37.2768 3.3305 38.7323 4.24611 39.5209C48.6252 77.7419 74.4841 66.6179 104.848 39.4876C105.731 38.6986 105.717 37.2933 104.83 36.508Z" stroke="black" stroke-width="5"/>
<circle cx="55.5" cy="37.5" r="26.5" fill="black"/>
<path d="M54.12 23.36C50.4933 23.36 47.48 24.5867 45.08 27.04C42.68 29.4933 41.48 33.0133 41.48 37.6C41.48 42.1333 42.6267 45.6267 44.92 48.08C47.2667 50.5333 50.3333 51.76 54.12 51.76C56.36 51.76 58.2267 51.4667 59.72 50.88C61.2133 50.24 62.5467 49.52 63.72 48.72C64.3067 49.04 64.7867 49.44 65.16 49.92C65.5333 50.4 65.72 50.9867 65.72 51.68C65.72 53.1733 64.6 54.4533 62.36 55.52C60.1733 56.5333 57.4267 57.04 54.12 57.04C50.44 57.04 47.1333 56.3467 44.2 54.96C41.32 53.52 39.0533 51.36 37.4 48.48C35.7467 45.6 34.92 41.9733 34.92 37.6C34.92 33.28 35.7733 29.68 37.48 26.8C39.1867 23.8667 41.48 21.68 44.36 20.24C47.2933 18.7467 50.4933 18 53.96 18C57.2667 18 59.9867 18.56 62.12 19.68C64.3067 20.8 65.4 22.08 65.4 23.52C65.4 24.16 65.2133 24.72 64.84 25.2C64.4667 25.68 63.9867 26.0533 63.4 26.32C62.2267 25.52 60.92 24.8267 59.48 24.24C58.0933 23.6533 56.3067 23.36 54.12 23.36Z" fill="white"/>
<circle cx="52" cy="30" r="4" fill="white"/>
<circle cx="47.5" cy="36.5" r="1.5" fill="white"/>
</svg>
