<svg width="200" height="200" viewBox="0 0 110 100" fill="none" xmlns="http://www.w3.org/2000/svg">
<path d="M86.5233 74.0413C85.5279 70.7647 86.9815 67.6494 90.0187 66.8649C92.9076 66.1186 95.4659 67.0422 96.7907 70.0447C97.8528 72.4518 96.74 75.5055 94.384 76.8076C91.7871 78.2429 88.7818 77.5431 87.1181 75.1065C86.9033 74.7919 86.7351 74.4455 86.5233 74.0413ZM91.6536 69.7149C91.3248 69.6906 91.0353 69.8012 90.7408 69.9393C89.853 70.3553 89.2834 71.0237 89.3451 72.0164C89.4053 72.9838 89.8711 73.7807 90.8044 74.2005C91.768 74.6339 92.5554 74.2046 93.2305 73.5759C93.8432 73.0054 94.192 72.25 93.9074 71.416C93.5762 70.4458 92.86 69.8437 91.6536 69.7149Z" fill="black"/>
<path d="M6.43617 76.5116C6.10692 75.4343 6.28361 74.4075 6.26137 73.3936C6.22642 71.7999 6.25289 70.205 6.24822 68.6106C6.24609 67.8866 6.27067 67.1269 7.06805 66.8366C7.90625 66.5315 8.71324 66.6438 9.27788 67.5397C10.3794 66.6792 11.6275 66.4855 12.9028 66.837C14.6953 67.3311 15.6415 68.6696 15.9119 70.4302C16.1835 72.1974 16.1143 73.9937 15.9933 75.7751C15.9184 76.8783 15.403 77.3564 14.4701 77.3653C13.5569 77.3741 12.9827 76.9128 12.9072 75.92C12.8106 74.6507 12.8383 73.3723 12.7988 72.0983C12.7582 70.7914 12.1536 70.0558 11.148 70.0624C10.1374 70.069 9.44609 70.8967 9.42043 72.177C9.39679 73.3565 9.40647 74.5366 9.40055 75.7164C9.3969 76.4447 9.16624 77.0909 8.42072 77.2971C7.65132 77.51 6.87996 77.4714 6.43617 76.5116Z" fill="black"/>
<path d="M105.198 66.7081C107.778 66.407 109.658 68.4663 109.749 71.0065C109.804 72.5369 109.774 74.0718 109.737 75.6036C109.712 76.6852 109.202 77.3001 108.369 77.3849C107.244 77.4994 106.586 76.9473 106.539 75.7098C106.498 74.6284 106.582 73.5422 106.608 72.4581C106.619 71.9753 106.592 71.4959 106.343 71.0644C105.988 70.4518 105.529 69.9364 104.748 70.0907C103.927 70.2531 103.354 70.7692 103.294 71.6453C103.201 73.0137 103.18 74.3869 103.11 75.7572C103.057 76.8114 102.542 77.3466 101.602 77.3688C100.636 77.3917 100.095 76.8452 100.092 75.8224C100.083 73.3646 100.157 70.9058 100.003 68.4498C99.9607 67.784 100.003 67.0899 100.715 66.8265C101.456 66.552 102.23 66.5813 102.83 67.2456C102.909 67.3336 102.982 67.4277 103.072 67.5361C103.719 67.0934 104.326 66.6691 105.198 66.7081Z" fill="black"/>
<path d="M43.4142 69.2784C43.4157 68.8664 43.403 68.5466 43.4217 68.2287C43.4832 67.1832 44.0489 66.6818 45.1045 66.7223C46.1206 66.7612 46.5868 67.2426 46.5939 68.2991C46.6037 69.7662 46.516 71.2386 46.6116 72.6994C46.8066 75.6789 44.144 78.0502 40.7004 77.4811C38.0275 77.0394 36.692 74.8396 36.8641 72.7849C36.9888 71.2964 36.8795 69.7888 36.8914 68.2899C36.9 67.2249 37.3251 66.7519 38.2593 66.7177C39.2973 66.6796 39.9397 67.1853 39.9809 68.2077C40.0388 69.6408 39.9866 71.0781 40.0277 72.5122C40.0594 73.6187 40.5995 74.272 41.4581 74.3631C42.5303 74.4768 43.3717 73.7488 43.4043 72.6245C43.4358 71.541 43.4132 70.4559 43.4142 69.2784Z" fill="black"/>
<path d="M72.6825 74.5129C73.2778 74.5976 73.7702 74.5692 74.1353 74.0795C73.9372 73.6779 73.5418 73.631 73.1869 73.532C72.3564 73.3005 71.5459 73.0212 70.7685 72.6429C69.4462 71.9994 68.8084 71.0388 68.9131 69.8124C69.0366 68.3659 69.8864 67.1531 71.2448 66.8768C72.9058 66.5391 74.6073 66.4255 76.1354 67.443C76.7201 67.8324 77.2099 68.309 76.8438 69.0995C76.462 69.924 75.737 70.1844 74.8723 69.8525C74.3078 69.6358 73.7468 69.3947 73.1382 69.345C72.7991 69.3173 72.3589 69.2604 72.2966 69.7388C72.2467 70.1218 72.6022 70.2505 72.9172 70.3484C73.7677 70.613 74.6248 70.8589 75.4665 71.1491C76.6385 71.553 77.2944 72.3983 77.4036 73.6291C77.517 74.9074 77.0439 75.9483 75.9854 76.6814C74.2881 77.8571 71.285 77.7762 69.6711 76.4844C69.0847 76.0149 68.4061 75.4842 68.923 74.5665C69.4379 73.6526 70.299 73.4386 71.2834 73.9699C71.7082 74.1991 72.1423 74.3836 72.6825 74.5129Z" fill="black"/>
<path d="M26.3371 67.1702C26.832 67.4306 27.2008 67.7313 27.5028 68.1101C27.9891 68.72 28.1677 69.3731 27.5989 70.0124C27.0666 70.6107 26.4652 70.6927 25.727 70.2526C24.231 69.3609 23.1094 69.5353 22.2752 70.6898C21.6546 71.5486 21.7008 72.8153 22.3821 73.6236C23.0646 74.4334 24.0254 74.624 25.0645 74.1398C25.3526 74.0056 25.6273 73.8399 25.8989 73.6736C26.6591 73.2082 27.2301 73.5548 27.7569 74.0961C28.2915 74.6453 28.2456 75.2173 27.8469 75.8268C27.0951 76.9762 25.937 77.3646 24.671 77.5255C22.0389 77.8601 19.3794 75.9942 18.7688 73.4088C18.1251 70.6835 19.5429 67.8015 22.0778 66.9457C23.4553 66.4806 24.9001 66.5002 26.3371 67.1702Z" fill="black"/>
<path d="M53.2829 69.8081C53.7139 70.8041 54.1209 71.7306 54.6258 72.88C55.4187 71.4448 55.884 70.1114 56.4321 68.8174C56.618 68.3785 56.7647 67.9162 57.0036 67.5081C57.4468 66.7513 58.3999 66.4783 59.1702 66.8331C59.8775 67.159 60.234 67.9398 59.9039 68.779C58.8658 71.4172 57.7003 74.0036 56.3165 76.4786C55.6104 77.7415 53.7812 77.7815 53.0622 76.5137C51.5856 73.9094 50.3947 71.1604 49.3267 68.3627C49.0693 67.6883 49.3455 67.1705 49.9655 66.8561C50.7394 66.4637 51.8341 66.7289 52.2471 67.4757C52.6455 68.1962 52.9264 68.9817 53.2829 69.8081Z" fill="black"/>
<path d="M31.8494 77.3532C30.8958 77.1108 30.6337 76.429 30.6705 75.6526C30.8184 72.5299 30.482 69.4075 30.7143 66.283C30.8014 65.1125 30.6411 63.9257 30.6611 62.7475C30.6814 61.5555 31.2464 60.9709 32.2278 61.0011C33.2014 61.031 33.7641 61.678 33.7651 62.7951C33.7692 67.0384 33.7723 71.2817 33.7659 75.525C33.7638 76.9006 33.3204 77.3297 31.8494 77.3532Z" fill="black"/>
<path d="M2.31758 77.2625C0.567591 77.501 0.108321 77.0899 0.0959138 75.4169C0.0677928 71.6252 0.0168507 67.8337 2.89465e-05 64.042C-0.006505 62.5695 1.09403 61.9213 2.36888 62.6083C2.85062 62.8679 3.12251 63.2354 3.11906 63.8289C3.0978 67.4931 3.09005 71.1571 3.19233 74.8212C3.2163 75.6801 3.31964 76.6493 2.31758 77.2625Z" fill="black"/>
<path d="M64.5272 77.3651C63.3584 77.1896 62.9419 76.7706 62.9395 75.7719C62.9336 73.3179 62.935 70.8637 62.9579 68.4098C62.9684 67.2805 63.5456 66.71 64.5802 66.7246C65.5102 66.7378 66.0593 67.171 66.0723 68.1018C66.1081 70.6507 66.1079 73.2012 66.0524 75.7496C66.0336 76.6131 65.5816 77.2677 64.5272 77.3651Z" fill="black"/>
<path d="M83.1757 76.049C82.8762 76.991 82.3448 77.5193 81.3801 77.3073C80.4464 77.1021 80.1545 76.4596 80.1713 75.5295C80.214 73.1703 80.1846 70.8098 80.1895 68.4498C80.1919 67.2914 80.6443 66.7572 81.6307 66.7257C82.6418 66.6934 83.301 67.3687 83.2923 68.5062C83.2734 70.9927 83.2241 73.479 83.1757 76.049Z" fill="black"/>
<path d="M65.9644 63.0989C66.3321 63.7994 66.3906 64.4403 65.9887 65.0676C65.4829 65.8574 64.4045 66.147 63.6312 65.7121C62.8617 65.2793 62.5525 64.0328 62.9981 63.1596C63.3923 62.3871 64.3466 62.1065 65.2371 62.5327C65.4878 62.6527 65.6932 62.867 65.9644 63.0989Z" fill="black"/>
<path d="M83.4331 63.9698C83.4794 64.8749 83.1229 65.448 82.3276 65.7336C81.6022 65.9941 80.9229 65.9051 80.3795 65.3567C79.8344 64.8067 79.7459 64.1185 80.0336 63.4057C80.3337 62.6624 80.9498 62.3353 81.707 62.3772C82.6439 62.4291 83.2205 62.9725 83.4331 63.9698Z" fill="black"/>
<path d="M104.83 28.508C66.1754 -5.74321 43.581 -5.30636 4.24418 28.4893C3.32761 29.2768 3.3305 30.7323 4.24611 31.5209C48.6252 69.7419 74.4841 58.6179 104.848 31.4876C105.731 30.6986 105.717 29.2933 104.83 28.508Z" fill="white" stroke="black" stroke-width="5"/>
<path d="M82 29.5C82 44.1355 70.1355 56 55.5 56C40.8645 56 29 44.1355 29 29.5C29 14.8645 40.8645 3 55.5 3C70.1355 3 82 14.8645 82 29.5Z" fill="black"/>
<circle cx="51" cy="21" r="3" fill="white"/>
<circle cx="47" cy="24" r="1" fill="white"/>
<path d="M63 15.5L60.9126 14.1857C54.4041 10.0877 45.8587 11.5083 41.026 17.4916V17.4916C39.6902 19.1454 38.717 21.0614 38.1692 23.1155L38.1049 23.3566C37.382 26.0676 37.4109 28.9244 38.1885 31.6202V31.6202C41.2145 42.1102 53.8697 46.2385 62.4993 39.5506L64.5 38" stroke="white" stroke-width="5" stroke-linecap="round"/>
</svg>
